<svg xmlns="http://www.w3.org/2000/svg" xmlns:xlink="http://www.w3.org/1999/xlink" width="190" height="190" viewBox="0 0 190 190">
  <defs>
    <filter id="Elipse_4750" x="0" y="0" width="190" height="190" filterUnits="userSpaceOnUse">
      <feOffset dy="6" input="SourceAlpha"/>
      <feGaussianBlur stdDeviation="5" result="blur"/>
      <feFlood flood-opacity="0.329"/>
      <feComposite operator="in" in2="blur"/>
      <feComposite in="SourceGraphic"/>
    </filter>
  </defs>
  <g id="Grupo_876115" data-name="Grupo 876115" transform="translate(-338 -2035)">
    <g transform="matrix(1, 0, 0, 1, 338, 2035)" filter="url(#Elipse_4750)">
      <circle id="Elipse_4750-2" data-name="Elipse 4750" cx="80" cy="80" r="80" transform="translate(15 9)" fill="#ffb500"/>
    </g>
    <g id="Grupo_872219" data-name="Grupo 872219" transform="translate(386.629 2073.186)">
      <g id="Grupo_165086" data-name="Grupo 165086" transform="translate(0 5.983)">
        <path id="Trazado_146771" data-name="Trazado 146771" d="M0,74.075c2.414-2.5,4.8-5.032,7.256-7.492,1.1-1.1,2.474-.99,4.079.161a5.184,5.184,0,0,0,1.931-3.85c.045-1.342.01-2.686.023-4.03A7.7,7.7,0,0,1,15.562,53.3c2.02-2.033,4.037-4.069,6.077-6.081,1.257-1.24,2.018-1.576,4.692-2.214-.957-1.829-.715-3.8-.73-5.748-.015-2,.01-4-.006-6a7.617,7.617,0,0,1,2.325-5.624c.862-.869,1.735-1.727,2.591-2.6a5.381,5.381,0,0,0,1.565-4.356l-.516-.1a2.864,2.864,0,0,1-2.509-2.994q-.023-4.3,0-8.6a2.863,2.863,0,0,1,3.061-3q12.359-.008,24.718,0a2.83,2.83,0,0,1,3.012,3.036c.01,2.567,0,5.135,0,7.7,0,2.652-.412,3.227-2.877,3.993a5.8,5.8,0,0,0,1.335,4.652,7.894,7.894,0,0,1,1.867,5.366c-.008,4.747-.014,9.493.016,14.24a5.732,5.732,0,0,0,.414,1.447c4.044-2.165,7-1.721,10.076,1.365q2.278,2.282,4.555,4.564c2.346,2.355,2.552,2.73,3.24,5.874,1.313.033,1.979.51,1.944,1.393s-.755,1.376-1.9,1.254c-.251,2.222.013,4.269,1.894,5.867.145-.1.306-.213.465-.327a2.759,2.759,0,0,1,3.681.221c2.154,2.109,4.277,4.251,6.388,6.4a7.317,7.317,0,0,1,.8,1.215v1.613a13.106,13.106,0,0,1-1.019,1.312q-8.655,8.7-17.334,17.377a2.837,2.837,0,0,1-4.464,0Q66.1,91.745,63.29,88.92c-1.59-1.6-1.7-2.723-.462-4.56a5.852,5.852,0,0,0-4.243-2.366A7.687,7.687,0,0,1,53.6,79.657c-1.332-1.328-2.672-2.649-4-3.979-.83-.83-.867-1.228-.252-2.275a1.6,1.6,0,0,1,2.159.36c.841.888,1.778,1.689,2.586,2.6,1.576,1.784,3.346,3.144,5.871,3.118a1.55,1.55,0,0,1,.344.094,8.59,8.59,0,0,1,4.334,2.738L78.427,68.588a8.442,8.442,0,0,1-2.671-7.125,11.008,11.008,0,0,0-.028-2.679,6.541,6.541,0,0,0-1.067-3.038c-2.188-2.44-4.533-4.748-6.924-6.994a3.979,3.979,0,0,0-4.964-.279C63.86,49.523,64.943,50.545,66,51.6a1.366,1.366,0,0,1,.152,2.115,1.415,1.415,0,0,1-2.057-.226c-.877-.849-1.747-1.705-2.62-2.558l-1.3-1.375c0,1.736,0,3.223,0,4.711,0,1.52.021,3.04-.005,4.56A4.59,4.59,0,0,1,54.96,63.5c-.4-.045-.79-.152-1.274-.249,0,.4,0,.725,0,1.048-.008.774.034,1.554-.038,2.322-.3,3.262-3.045,4.927-6.506,3.92l-.23.738c-.662.744-1.2,1.729-2.019,2.173a11.669,11.669,0,0,0-2.7,2.14q-2,1.988-3.981,3.992a7.717,7.717,0,0,1-5.039,2.408,5.815,5.815,0,0,0-4.276,2.4c1.222,1.672,1.134,2.936-.305,4.384q-2.933,2.952-5.882,5.887a2.784,2.784,0,0,1-4.2.038C14.663,90.873,10.841,87.018,7,83.185a1.473,1.473,0,0,1-.313-2c.938-.724,1.427-.69,2.311.194q5.443,5.443,10.881,10.892c.225.225.465.437.568.534l6.468-6.339L9.169,68.8,2.75,75.084a.12.12,0,0,0,.028.045c.628.638,1.26,1.271,1.884,1.912a1.443,1.443,0,0,1,.193,2.2A1.491,1.491,0,0,1,2.718,78.9C1.82,77.881.907,76.877,0,75.867V74.075M42.44,19.26c.308-1.1.593-1.325,1.777-1.326q5.952-.008,11.9,0H57.1V8.749H31.79v9.183c1.8,0,3.555.028,5.307-.011a1.542,1.542,0,0,1,1.793,1.34c-.361,1.123-.667,1.35-1.852,1.359-.729.005-1.458,0-2.177,0-.1.933-.182,1.75-.266,2.567a9.99,9.99,0,0,1-2.994,4.58,11.6,11.6,0,0,0-1.871,1.919,6.3,6.3,0,0,0-1.351,2.826c-.168,3.275-.092,6.564-.057,9.847.016,1.488,1.67,3.674,3.173,3.632.021-.218.061-.445.062-.672.007-1.313-.018-2.628.016-3.94a1.274,1.274,0,0,1,1.167-1.358,1.229,1.229,0,0,1,1.416.837,3.1,3.1,0,0,1,.09,1.061q.006,11.867.007,23.734a4.777,4.777,0,0,0,.1,1.151,1.864,1.864,0,0,0,3.663-.314c.031-.326.023-.656.023-.984q0-10.613,0-21.226c0-1.044.518-1.67,1.332-1.687s1.332.605,1.354,1.643c.005.239,0,.478,0,.716q0,12.091,0,24.182c0,1.457.731,2.3,1.932,2.282,1.162-.015,1.858-.834,1.866-2.251.007-1.194-.038-2.387-.038-3.581q-.006-10.389,0-20.778c0-.269-.015-.539.012-.805a1.393,1.393,0,0,1,1.368-1.38A1.356,1.356,0,0,1,47.221,44c.023.267.009.537.009.806q0,10.479,0,20.957a7.733,7.733,0,0,0,.013.805,1.861,1.861,0,0,0,3.648.239,5.811,5.811,0,0,0,.1-1.244q.008-10.613,0-21.226c0-.7.114-1.342.858-1.605a1.384,1.384,0,0,1,1.747.7c.028.476.078.951.079,1.426q.01,6.674.006,13.349a7.289,7.289,0,0,0,.05,1.072,1.861,1.861,0,0,0,3.611.262,4.6,4.6,0,0,0,.134-1.236q.01-13.707.014-27.414a5.962,5.962,0,0,0-1.418-4.033,7.6,7.6,0,0,1-1.822-4.933c-.005-.41,0-.819,0-1.3H53.166c-2.986,0-5.972.005-8.959,0-1.134,0-1.469-.275-1.767-1.358M26.694,47.784a4.364,4.364,0,0,0-3.19,1.38q-3.01,3.008-6.015,6.02a5.072,5.072,0,0,0-1.511,3.708c-.006.866-.045,1.734.007,2.6a8.675,8.675,0,0,1-2.659,7.132c-.032.031-.019.109,0,0L27.1,82.346A9.087,9.087,0,0,1,33.5,79.213a4.242,4.242,0,0,0,2.22-1.04c1.318-1.156,2.5-2.471,3.734-3.722l.763-.7L37.9,70.6c-3.633,1.074-6.336-.948-6.337-4.93q0-7.518,0-15.036V49.557l-1.48,1.562c-.825.806-1.645,1.618-2.478,2.416a1.387,1.387,0,0,1-2.048.137,1.348,1.348,0,0,1,.153-2.04c.8-.832,1.614-1.652,2.422-2.477l1.032-.976-2.467-.4M71.09,92.7,88.851,75.019l-6.234-6.312L64.8,86.428,71.09,92.7" transform="translate(0 -5.983)" fill="#040303"/>
        <path id="Trazado_146773" data-name="Trazado 146773" d="M419.924,174.988a1.383,1.383,0,0,1,1.369,1.359,1.346,1.346,0,0,1-2.691.022,1.331,1.331,0,0,1,1.322-1.381" transform="translate(-343.596 -144.705)" fill="#090909"/>
        <path id="Trazado_146774" data-name="Trazado 146774" d="M362.636,103.659a1.346,1.346,0,0,1-2.691.034,1.351,1.351,0,0,1,1.318-1.394,1.4,1.4,0,0,1,1.372,1.36" transform="translate(-295.449 -85.041)" fill="#080808"/>
        <path id="Trazado_146775" data-name="Trazado 146775" d="M384.509,126a1.372,1.372,0,0,1-1.372-1.346,1.4,1.4,0,0,1,1.389-1.342,1.353,1.353,0,0,1,1.3,1.322A1.289,1.289,0,0,1,384.509,126" transform="translate(-314.486 -102.291)" fill="#080808"/>
        <path id="Trazado_146776" data-name="Trazado 146776" d="M42.993,258.8a1.3,1.3,0,0,1-1.308-1.376,1.347,1.347,0,0,1,1.3-1.317,1.388,1.388,0,0,1,1.373,1.354,1.335,1.335,0,0,1-1.366,1.339" transform="translate(-34.215 -211.293)" fill="#080808"/>
        <path id="Trazado_146777" data-name="Trazado 146777" d="M54.38,198.333a1.368,1.368,0,0,1-1.37,1.35,1.314,1.314,0,0,1-1.311-1.294,1.339,1.339,0,0,1,1.3-1.4,1.373,1.373,0,0,1,1.377,1.345" transform="translate(-42.435 -162.763)" fill="#090909"/>
        <path id="Trazado_146778" data-name="Trazado 146778" d="M80.292,143.685A1.33,1.33,0,0,1,81.675,145a1.4,1.4,0,0,1-1.354,1.379,1.382,1.382,0,0,1-1.335-1.3,1.343,1.343,0,0,1,1.306-1.4" transform="translate(-64.832 -119.011)" fill="#090909"/>
        <path id="Trazado_146779" data-name="Trazado 146779" d="M45.985,287.51a1.286,1.286,0,0,1-1.354,1.326,1.334,1.334,0,0,1-1.32-1.3,1.4,1.4,0,0,1,1.333-1.4,1.344,1.344,0,0,1,1.341,1.366" transform="translate(-35.55 -235.944)" fill="#080808"/>
        <path id="Trazado_146780" data-name="Trazado 146780" d="M431.1,206.942a1.3,1.3,0,0,1-1.346-1.341,1.339,1.339,0,0,1,1.352-1.354,1.413,1.413,0,0,1,1.328,1.319,1.351,1.351,0,0,1-1.334,1.376" transform="translate(-352.749 -168.721)" fill="#080808"/>
        <path id="Trazado_146781" data-name="Trazado 146781" d="M51.051,318.432a1.356,1.356,0,0,1-1.306-1.4,1.281,1.281,0,0,1,1.391-1.287,1.345,1.345,0,0,1,1.287,1.33,1.4,1.4,0,0,1-1.371,1.361" transform="translate(-40.832 -260.236)" fill="#090909"/>
        <path id="Trazado_146782" data-name="Trazado 146782" d="M149.2,86.111a1.34,1.34,0,1,1-2.679-.007,1.34,1.34,0,0,1,2.679.007" transform="translate(-120.266 -70.683)" fill="#070707"/>
        <path id="Trazado_146783" data-name="Trazado 146783" d="M101.049,122.061a1.368,1.368,0,0,1-1.375,1.339,1.4,1.4,0,0,1-1.311-1.327,1.353,1.353,0,0,1,1.35-1.358,1.29,1.29,0,0,1,1.335,1.347" transform="translate(-80.738 -100.156)" fill="#080808"/>
        <path id="Trazado_146784" data-name="Trazado 146784" d="M46.971,227.5a1.3,1.3,0,0,1-1.355,1.33,1.337,1.337,0,0,1-1.321-1.3,1.4,1.4,0,0,1,1.333-1.4,1.353,1.353,0,0,1,1.343,1.366" transform="translate(-36.358 -186.683)" fill="#080808"/>
        <path id="Trazado_146785" data-name="Trazado 146785" d="M64.545,171.869a1.347,1.347,0,0,1-1.37-1.339,1.424,1.424,0,0,1,1.386-1.353,1.35,1.35,0,0,1,1.3,1.319,1.309,1.309,0,0,1-1.317,1.373" transform="translate(-51.855 -139.936)" fill="#0a0a0a"/>
        <path id="Trazado_146786" data-name="Trazado 146786" d="M439.948,267.7a1.3,1.3,0,0,1-1.321,1.365,1.358,1.358,0,0,1-1.353-1.359,1.391,1.391,0,0,1,1.3-1.332,1.326,1.326,0,0,1,1.37,1.326" transform="translate(-358.922 -219.717)" fill="#070707"/>
        <path id="Trazado_146787" data-name="Trazado 146787" d="M336.329,86.617a1.332,1.332,0,0,1-1.408,1.288,1.3,1.3,0,0,1-1.277-1.319,1.352,1.352,0,0,1,1.345-1.361,1.41,1.41,0,0,1,1.34,1.391" transform="translate(-273.862 -71.027)" fill="#080808"/>
        <path id="Trazado_146788" data-name="Trazado 146788" d="M122.376,103.595a1.379,1.379,0,0,1-1.346-1.381,1.356,1.356,0,0,1,1.4-1.311,1.317,1.317,0,0,1,1.289,1.318,1.375,1.375,0,0,1-1.346,1.375" transform="translate(-99.344 -83.894)" fill="#080808"/>
        <path id="Trazado_146789" data-name="Trazado 146789" d="M404.337,147.848a1.353,1.353,0,0,1,1.312,1.4,1.345,1.345,0,0,1-2.688-.079,1.318,1.318,0,0,1,1.376-1.319" transform="translate(-330.758 -122.428)" fill="#0a0a0a"/>
        <path id="Trazado_146790" data-name="Trazado 146790" d="M437.284,235.032a1.347,1.347,0,0,1,.117,2.691,1.347,1.347,0,1,1-.117-2.691" transform="translate(-357.863 -193.99)" fill="#070707"/>
        <path id="Trazado_146791" data-name="Trazado 146791" d="M183.12,122.222a1.384,1.384,0,0,0-1.747-.7c-.744.263-.859.9-.858,1.606q.008,10.613,0,21.226a5.813,5.813,0,0,1-.1,1.245,1.861,1.861,0,0,1-3.648-.239,7.729,7.729,0,0,1-.013-.805q0-10.479,0-20.957c0-.269.013-.539-.009-.806a1.356,1.356,0,0,0-1.348-1.383,1.392,1.392,0,0,0-1.368,1.38c-.027.266-.012.537-.012.805q0,10.389,0,20.778c0,1.194.045,2.387.038,3.581-.008,1.416-.7,2.236-1.866,2.251-1.2.015-1.931-.825-1.932-2.282q-.009-12.091,0-24.182c0-.239,0-.478,0-.717-.022-1.038-.537-1.66-1.354-1.643s-1.331.643-1.332,1.687q-.01,10.613,0,21.226c0,.328.008.658-.023.984a1.864,1.864,0,0,1-3.663.314,4.777,4.777,0,0,1-.1-1.151q-.008-11.867-.007-23.734a3.1,3.1,0,0,0-.09-1.061,1.229,1.229,0,0,0-1.416-.837,1.274,1.274,0,0,0-1.167,1.358c-.034,1.313-.009,2.627-.016,3.94,0,.227-.041.454-.062.672-1.5.042-3.158-2.144-3.173-3.632-.035-3.283-.111-6.572.057-9.847a6.3,6.3,0,0,1,1.351-2.826,11.611,11.611,0,0,1,1.871-1.919,9.989,9.989,0,0,0,2.994-4.58c3.143.137,6.3-.261,9.435.331,5.388,1.016,9.845,6.3,9.733,11.643-.051,2.443,0,4.888-.016,7.332a5.931,5.931,0,0,1-.152.938" transform="translate(-129.524 -84.772)" fill="#fbdcc3"/>
        <path id="Trazado_146792" data-name="Trazado 146792" d="M270.129,264.676l-1.15-1.118.8,0a6.053,6.053,0,0,0,5.973-5.1,15.11,15.11,0,0,0,.016-2.185c.323-.034.469-.055.616-.064a6.029,6.029,0,0,0,5.878-6.234c-.107-2.587-.014-5.183-.01-7.775.873.853,1.743,1.709,2.62,2.558a1.414,1.414,0,0,0,2.056.226,1.366,1.366,0,0,0-.152-2.115c-1.054-1.051-2.137-2.072-3.223-3.121a3.979,3.979,0,0,1,4.964.279c2.391,2.246,4.737,4.554,6.924,6.994a6.539,6.539,0,0,1,1.067,3.038,11,11,0,0,1,.028,2.679,8.442,8.442,0,0,0,2.671,7.125L285.423,273.59a8.591,8.591,0,0,0-4.334-2.738,1.561,1.561,0,0,0-.344-.094c-2.525.025-4.294-1.334-5.871-3.118-.809-.915-1.745-1.716-2.586-2.6a1.6,1.6,0,0,0-2.16-.36" transform="translate(-220.783 -197.256)" fill="#fccaa9"/>
        <path id="Trazado_146793" data-name="Trazado 146793" d="M100.411,265.938c-1.236,1.25-2.416,2.565-3.734,3.722a4.243,4.243,0,0,1-2.22,1.04,9.087,9.087,0,0,0-6.407,3.133L74.278,260.108c-.015.108-.028.03,0,0a8.674,8.674,0,0,0,2.659-7.131c-.052-.863-.012-1.731-.007-2.6a5.072,5.072,0,0,1,1.511-3.708q3.012-3.005,6.015-6.019a4.365,4.365,0,0,1,3.19-1.381l1.435,1.371c-.808.825-1.621,1.645-2.422,2.477a1.348,1.348,0,0,0-.153,2.04,1.387,1.387,0,0,0,2.048-.137c.833-.8,1.652-1.61,2.478-2.416a5.433,5.433,0,0,1,.192,1.007c.013,4.823.006,9.646.016,14.469a4.125,4.125,0,0,0,.139,1.138,5.885,5.885,0,0,0,6.13,4.533,1.464,1.464,0,0,1,1.314.679,13.534,13.534,0,0,0,1.586,1.506" transform="translate(-60.956 -197.469)" fill="#fccaa9"/>
        <path id="Trazado_146794" data-name="Trazado 146794" d="M184.52,31.931a1.542,1.542,0,0,0-1.793-1.34c-1.751.039-3.5.011-5.307.011V21.419h25.314V30.6h-.983q-5.952,0-11.9,0c-1.184,0-1.469.226-1.777,1.326h-3.55M181.8,27.408a1.5,1.5,0,0,0,1.429-1.427,1.437,1.437,0,0,0-1.49-1.43A1.388,1.388,0,0,0,180.376,26a1.433,1.433,0,0,0,1.422,1.408" transform="translate(-145.63 -18.653)" fill="#d2e1f1"/>
        <path id="Trazado_146795" data-name="Trazado 146795" d="M19.277,368.963l-1.828-1.939a1.443,1.443,0,0,0-.192-2.2c-.624-.641-1.256-1.275-1.884-1.912a.121.121,0,0,1-.028-.045l6.419-6.28,17.743,17.661-6.468,6.339c-.1-.1-.343-.308-.568-.533q-5.441-5.445-10.881-10.892c-.884-.884-1.373-.918-2.311-.194m15.709,5.6a1.428,1.428,0,0,0-2.856.043,1.428,1.428,0,1,0,2.856-.043" transform="translate(-12.595 -293.762)" fill="#a3314f"/>
        <path id="Trazado_146796" data-name="Trazado 146796" d="M367.93,380.031l-6.29-6.268,17.818-17.72,6.234,6.312L367.93,380.031m11.927-19.55a1.415,1.415,0,0,0-1.414,1.426,1.48,1.48,0,0,0,1.443,1.427,1.433,1.433,0,0,0,1.4-1.456,1.378,1.378,0,0,0-1.425-1.4" transform="translate(-296.841 -293.318)" fill="#ced371"/>
        <path id="Trazado_146797" data-name="Trazado 146797" d="M197.369,80.082h3.55c.3,1.083.634,1.355,1.767,1.358,2.986.008,5.973,0,8.959,0h1.083c0,.485,0,.894,0,1.3a7.6,7.6,0,0,0,1.822,4.933,5.961,5.961,0,0,1,1.418,4.033q-.026,13.707-.014,27.414a4.608,4.608,0,0,1-.134,1.236,1.862,1.862,0,0,1-3.611-.262,7.266,7.266,0,0,1-.05-1.072q-.005-6.674-.007-13.349c0-.476-.052-.951-.079-1.426a5.934,5.934,0,0,0,.152-.938c.013-2.444-.035-4.889.016-7.332.111-5.342-4.345-10.627-9.733-11.643-3.14-.592-6.292-.195-9.435-.331l.266-2.567c.719,0,1.448,0,2.176,0,1.185-.009,1.492-.237,1.852-1.359" transform="translate(-158.479 -66.805)" fill="#fbc8a8"/>
        <path id="Trazado_146798" data-name="Trazado 146798" d="M276.368,250.51c0,2.592-.1,5.188.01,7.775a6.029,6.029,0,0,1-5.878,6.234c-.147.009-.293.03-.616.064a15.113,15.113,0,0,1-.016,2.185,6.053,6.053,0,0,1-5.973,5.1l-.8,0-1.285-1.006.231-.739c3.461,1.006,6.2-.658,6.506-3.92.071-.769.03-1.548.038-2.323,0-.323,0-.646,0-1.048.484.1.875.2,1.274.249a4.59,4.59,0,0,0,5.205-4.678c.026-1.519.005-3.04.005-4.559v-4.711l1.3,1.375" transform="translate(-214.896 -205.567)" fill="#fbac83"/>
        <path id="Trazado_146799" data-name="Trazado 146799" d="M177.247,274.06a13.533,13.533,0,0,1-1.586-1.506,1.465,1.465,0,0,0-1.315-.679,5.885,5.885,0,0,1-6.13-4.533,4.126,4.126,0,0,1-.139-1.138c-.009-4.823,0-9.646-.016-14.469a5.432,5.432,0,0,0-.192-1.007l1.48-1.562v1.076q0,7.518,0,15.036c0,3.982,2.7,6,6.337,4.93l2.322,3.152-.763.7" transform="translate(-137.791 -205.591)" fill="#fcac84"/>
        <path id="Trazado_146800" data-name="Trazado 146800" d="M150.413,240.641l-1.435-1.371,2.467.4-1.032.976" transform="translate(-122.284 -197.469)" fill="#e59e7a"/>
        <path id="Trazado_146801" data-name="Trazado 146801" d="M321.385,442.28a1.387,1.387,0,0,1-1.336,1.388,1.343,1.343,0,0,1-.081-2.685,1.359,1.359,0,0,1,1.417,1.3" transform="translate(-261.593 -363.037)" fill="#090909"/>
        <path id="Trazado_146802" data-name="Trazado 146802" d="M292.992,452.253a1.355,1.355,0,0,1-1.388,1.324,1.409,1.409,0,0,1-1.3-1.339,1.345,1.345,0,0,1,1.366-1.344,1.3,1.3,0,0,1,1.324,1.359" transform="translate(-238.285 -371.174)" fill="#090909"/>
        <path id="Trazado_146803" data-name="Trazado 146803" d="M233.758,458.507a1.309,1.309,0,0,1-1.339,1.348,1.356,1.356,0,0,1-1.348-1.269,1.38,1.38,0,0,1,1.309-1.412,1.355,1.355,0,0,1,1.378,1.332" transform="translate(-189.666 -376.329)" fill="#0a0a0a"/>
        <path id="Trazado_146804" data-name="Trazado 146804" d="M175.364,447.172a1.388,1.388,0,0,1-1.326,1.4,1.357,1.357,0,0,1-1.347-1.27,1.292,1.292,0,0,1,1.26-1.414,1.343,1.343,0,0,1,1.413,1.289" transform="translate(-141.746 -367.06)" fill="#080808"/>
        <path id="Trazado_146805" data-name="Trazado 146805" d="M262.334,456.177a1.383,1.383,0,0,1,1.345,1.379,1.345,1.345,0,0,1-2.69,0,1.371,1.371,0,0,1,1.344-1.376" transform="translate(-214.225 -375.51)" fill="#080808"/>
        <path id="Trazado_146806" data-name="Trazado 146806" d="M202.767,453.85a1.288,1.288,0,0,1,1.248,1.429,1.35,1.35,0,0,1-1.368,1.248,1.4,1.4,0,0,1-1.316-1.415,1.333,1.333,0,0,1,1.436-1.262" transform="translate(-165.255 -373.598)" fill="#080808"/>
        <path id="Trazado_146807" data-name="Trazado 146807" d="M195.337,41.754a1.433,1.433,0,0,1-1.422-1.408,1.388,1.388,0,0,1,1.361-1.448,1.437,1.437,0,0,1,1.49,1.43,1.5,1.5,0,0,1-1.429,1.427" transform="translate(-159.169 -32.999)" fill="#040708"/>
        <path id="Trazado_146808" data-name="Trazado 146808" d="M111.883,450.557a1.428,1.428,0,1,1-2.856.043,1.428,1.428,0,0,1,2.856-.043" transform="translate(-89.491 -369.752)" fill="#080405"/>
        <path id="Trazado_146809" data-name="Trazado 146809" d="M456.83,380.814a1.378,1.378,0,0,1,1.425,1.4,1.434,1.434,0,0,1-1.4,1.456,1.48,1.48,0,0,1-1.443-1.427,1.415,1.415,0,0,1,1.414-1.426" transform="translate(-373.813 -313.651)" fill="#080703"/>
      </g>
    </g>
  </g>
</svg>
