<svg xmlns="http://www.w3.org/2000/svg" xmlns:xlink="http://www.w3.org/1999/xlink" width="195.126" height="151.277" viewBox="0 0 195.126 151.277">
  <defs>
    <clipPath id="clip-path">
      <rect id="Rectángulo_33803" data-name="Rectángulo 33803" width="195.126" height="143.789" fill="none"/>
    </clipPath>
    <clipPath id="clip-path-2">
      <path id="Trazado_114221" data-name="Trazado 114221" d="M.286,30.953C-.959,23.7,2.081-.589,5.1.011S12.97,26.443,12.2,30c-.388,1.788-4.281,3.307-6.521,3.539a5.647,5.647,0,0,1-.579.029c-2.128,0-4.555-1.12-4.811-2.614" transform="translate(0 0)" fill="none"/>
    </clipPath>
    <clipPath id="clip-path-3">
      <path id="Trazado_114198" data-name="Trazado 114198" d="M172.258,43.659c1.321,1.649-6.359,21.465-8.347,21.863S42.471,50.815,41.478,49.224s-1.391-20.472,0-22.261c.071-.092.476-.135,1.176-.135,12.975,0,128.1,14.946,129.6,16.831" transform="translate(-40.577 -26.828)" fill="none"/>
    </clipPath>
    <clipPath id="clip-path-5">
      <path id="Trazado_114205" data-name="Trazado 114205" d="M170.566,77.057c1.405,1.405-6.062,22.46-8.2,23.453S55.089,81.629,54.294,80.238s-.874-21.682-.278-22.675c.016-.027.113-.039.284-.039,6.279,0,113.944,17.213,116.265,19.534" transform="translate(-53.625 -57.523)" fill="none"/>
    </clipPath>
    <clipPath id="clip-path-7">
      <path id="Trazado_114211" data-name="Trazado 114211" d="M166.139,112.193c1.432,1.822-4.024,10.335-4.819,10.533s-89.8-19.278-90.314-20.273-1.668-9.54,0-10.335a.655.655,0,0,1,.23-.026c5.31,0,92.763,17.377,94.9,20.1" transform="translate(-70.136 -92.093)" fill="none"/>
    </clipPath>
    <clipPath id="clip-path-9">
      <path id="Trazado_114221-2" data-name="Trazado 114221" d="M.212,22.97C-.711,17.586,1.544-.437,3.783.008S9.625,19.624,9.052,22.262c-.288,1.327-3.177,2.454-4.839,2.626a4.189,4.189,0,0,1-.43.021C2.2,24.91.4,24.078.212,22.97" transform="translate(0 0)" fill="none"/>
    </clipPath>
    <clipPath id="clip-path-10">
      <path id="Trazado_114221-3" data-name="Trazado 114221" d="M.389,42.126C-1.3,32.251,2.832-.8,6.937.015S17.652,35.988,16.6,40.827c-.528,2.434-5.826,4.5-8.875,4.816a7.684,7.684,0,0,1-.788.039c-2.9,0-6.2-1.525-6.548-3.557" transform="translate(0 0)" fill="none"/>
    </clipPath>
  </defs>
  <g id="Grupo_876116" data-name="Grupo 876116" transform="translate(-1171.585 -396.414)">
    <g id="Grupo_876094" data-name="Grupo 876094" transform="translate(859.837 95.863)">
      <g id="Grupo_80144" data-name="Grupo 80144" transform="translate(311.748 308.038)">
        <g id="Grupo_80143" data-name="Grupo 80143" clip-path="url(#clip-path)">
          <path id="Trazado_114159" data-name="Trazado 114159" d="M44.407,10.276S27.751,5.6,25.764,8.381,5.62,65.043,5.62,65.043" transform="translate(133.639 0.388)" fill="none" stroke="#552a1a" stroke-linecap="round" stroke-miterlimit="10" stroke-width="4"/>
          <path id="Trazado_114160" data-name="Trazado 114160" d="M1.611,1.664C.261,2.713-.969,12.512,1.117,13.647s26.135,2.045,28.519,0S33.014,2.061,30.827.67,3.4.273,1.611,1.664" transform="translate(150.085 4.389)" fill="#b0b855"/>
          <path id="Trazado_114161" data-name="Trazado 114161" d="M78.579,127.39a8.745,8.745,0,1,0,8.745-8.745,8.745,8.745,0,0,0-8.745,8.745" transform="translate(15.408 7.654)" fill="#263347"/>
          <path id="Trazado_114162" data-name="Trazado 114162" d="M82.406,127.143a4.671,4.671,0,1,0,4.671-4.671,4.672,4.672,0,0,0-4.671,4.671" transform="translate(15.656 7.901)" fill="#ffc674"/>
          <path id="Trazado_114163" data-name="Trazado 114163" d="M84.831,126.987A2.089,2.089,0,1,0,86.92,124.9a2.089,2.089,0,0,0-2.089,2.089" transform="translate(15.814 8.058)" fill="#263347"/>
          <path id="Trazado_114164" data-name="Trazado 114164" d="M144.682,112.3a8.745,8.745,0,1,0,8.745-8.745,8.745,8.745,0,0,0-8.745,8.745" transform="translate(-121.062 6.681)" fill="#263347"/>
          <path id="Trazado_114165" data-name="Trazado 114165" d="M148.509,112.052a4.671,4.671,0,1,0,4.671-4.671,4.672,4.672,0,0,0-4.671,4.671" transform="translate(-120.815 6.928)" fill="#ffc674"/>
          <path id="Trazado_114166" data-name="Trazado 114166" d="M150.934,111.9a2.089,2.089,0,1,0,2.089-2.089,2.088,2.088,0,0,0-2.089,2.089" transform="translate(-120.657 7.084)" fill="#263347"/>
          <path id="Trazado_114167" data-name="Trazado 114167" d="M59.672,31.946s5.446-7.613,4.118-14.791a2.663,2.663,0,0,0-3.55.249s.816,8.739-.567,14.542" transform="translate(67.606 1.069)" fill="#b0b855"/>
          <path id="Trazado_114168" data-name="Trazado 114168" d="M74.062,29.867c-1.831-.377-3.508-5.464-7.256-8.674s-13.626-.525-16.872,6.685-3.129,22.356-.069,24.7,8.01,1.8,8.89,3.084,3.2,5.182,4.963,5.518,17.972-1.491,23.606-9.757,3.683-15.449-.783-18.859-10.357-2.264-12.478-2.7" transform="translate(53.736 1.281)" fill="#b21b23"/>
          <path id="Trazado_114169" data-name="Trazado 114169" d="M63.9,33.421c5.02,1.38,6.566,16.851-1.861,18.912s-11.446-3.91-10.594-9.468S57.038,31.535,63.9,33.421" transform="translate(72.497 2.133)" fill="#dd242d"/>
          <path id="Trazado_114170" data-name="Trazado 114170" d="M104.006,22.612s1.025-11.329-2.354-16.5c0,0-3.379-.6-3.578,1.192Z" transform="translate(-13.429 0.388)" fill="#b0b855"/>
          <path id="Trazado_114171" data-name="Trazado 114171" d="M100.327,20.211c-1.287,1.4-10.037-4.969-15.6-2.783s-10.932,15.72-4.968,25.747S91.482,54.4,93.868,53.5s5.167-2.286,7.553-.7,8.585,3.1,13.515-4.67,11.84-21.7,1.59-29.317c-5.842-4.341-10.335-4.969-16.2,1.391" transform="translate(-8.823 1)" fill="#dd1112"/>
          <path id="Trazado_114172" data-name="Trazado 114172" d="M86.191,20.307c4.887-2.848,11.577,4.422,10.388,10.513S92.5,43.039,86.191,42.075s-8.3-16.932,0-21.768" transform="translate(12.516 1.269)" fill="#e53c4c"/>
          <path id="Trazado_114173" data-name="Trazado 114173" d="M132.5,27.3s3.205-8.8,0-15.353a2.663,2.663,0,0,0-3.354,1.192s3.131,8.2,3.354,14.161" transform="translate(-76.281 0.758)" fill="#b0b855"/>
          <path id="Trazado_114174" data-name="Trazado 114174" d="M135.927,24.955c-1.865.129-4.845-4.323-9.317-6.409s-13.267,3.149-14.459,10.966,2.982,22.375,6.558,23.816,8.2-.417,9.391.587,4.472,4.134,6.261,3.984,16.913-6.257,20.124-15.73-.6-15.872-5.813-17.958-10.584.6-12.745.745" transform="translate(-79.706 1.167)" fill="#b21b23"/>
          <path id="Trazado_114175" data-name="Trazado 114175" d="M124.617,26.359c5.207-.017,10.844,14.473,3.28,18.718s-12.075-.7-12.745-6.28,2.349-12.415,9.466-12.439" transform="translate(-58.93 1.701)" fill="#dd242d"/>
          <path id="Trazado_114176" data-name="Trazado 114176" d="M91.356,52s3.205-8.8,0-15.353A2.663,2.663,0,0,0,88,37.839s3.131,8.2,3.354,14.161" transform="translate(8.666 2.352)" fill="#b0b855"/>
          <path id="Trazado_114177" data-name="Trazado 114177" d="M94.781,49.654c-1.865.129-4.845-4.323-9.317-6.409S72.2,46.394,71.005,54.21s2.982,22.375,6.558,23.816,8.2-.417,9.391.587,4.472,4.134,6.261,3.984,16.913-6.257,20.124-15.73-.6-15.872-5.813-17.958-10.584.6-12.745.745" transform="translate(5.241 2.76)" fill="#b21b23"/>
          <path id="Trazado_114178" data-name="Trazado 114178" d="M83.471,51.058c5.207-.017,10.844,14.473,3.28,18.718s-12.075-.7-12.745-6.28,2.349-12.415,9.466-12.439" transform="translate(26.017 3.294)" fill="#dd242d"/>
          <path id="Trazado_114179" data-name="Trazado 114179" d="M111.951,45.982s-1.025-11.329,2.354-16.5c0,0,3.379-.6,3.578,1.192Z" transform="translate(-41.775 1.896)" fill="#b0b855"/>
          <path id="Trazado_114180" data-name="Trazado 114180" d="M117.969,43.581c1.287,1.4,10.037-4.969,15.6-2.783s10.932,15.72,4.969,25.747-11.727,11.221-14.112,10.327-5.167-2.286-7.553-.7-8.585,3.1-13.515-4.67-11.84-21.7-1.59-29.317c5.842-4.341,10.335-4.969,16.2,1.391" transform="translate(-48.719 2.507)" fill="#dd1112"/>
          <path id="Trazado_114181" data-name="Trazado 114181" d="M130.37,43.677c-4.887-2.848-11.577,4.422-10.388,10.513s4.079,12.22,10.388,11.255,8.3-16.932,0-21.768" transform="translate(-68.322 2.777)" fill="#e53c4c"/>
          <path id="Trazado_114182" data-name="Trazado 114182" d="M98.365,79.023s1.025-11.329-2.354-16.5c0,0-3.379-.6-3.578,1.192Z" transform="translate(-1.783 4.028)" fill="#b0b855"/>
          <path id="Trazado_114183" data-name="Trazado 114183" d="M94.686,76.622c-1.287,1.4-10.037-4.969-15.6-2.783s-10.932,15.72-4.968,25.747,11.726,11.221,14.111,10.327,5.167-2.286,7.553-.7,8.585,3.1,13.515-4.67,11.84-21.7,1.59-29.317c-5.842-4.341-10.335-4.969-16.2,1.391" transform="translate(2.822 4.639)" fill="#dd1112"/>
          <path id="Trazado_114184" data-name="Trazado 114184" d="M80.55,76.718c4.887-2.848,11.577,4.422,10.388,10.513S86.858,99.45,80.55,98.486s-8.3-16.932,0-21.768" transform="translate(24.161 4.908)" fill="#e53c4c"/>
          <path id="Trazado_114185" data-name="Trazado 114185" d="M144.307,77.678s-1.254-11.306-5.6-15.7c0,0-3.43.089-3.268,1.882Z" transform="translate(-93.357 3.999)" fill="#b0b855"/>
          <path id="Trazado_114186" data-name="Trazado 114186" d="M133.6,75.3c-.981,1.624-10.825-2.868-15.842.384s-7.579,17.583.263,26.221,13.728,8.658,15.887,7.306,4.608-3.27,7.262-2.188,9.031,1.329,12.313-7.272,7.275-23.625-4.287-29.044c-6.589-3.089-11.118-2.809-15.6,4.592" transform="translate(-82.098 4.442)" fill="#dd1112"/>
          <path id="Trazado_114187" data-name="Trazado 114187" d="M120.171,73.966c4.221-3.765,12.226,2.026,12.275,8.231s-1.562,12.788-7.936,13.1S113,80.361,120.171,73.966" transform="translate(-61.54 4.695)" fill="#e53c4c"/>
          <path id="Trazado_114188" data-name="Trazado 114188" d="M113.5,76.519s3.205-8.8,0-15.353a2.663,2.663,0,0,0-3.354,1.192s3.131,8.2,3.354,14.161" transform="translate(-37.051 3.934)" fill="#b0b855"/>
          <path id="Trazado_114189" data-name="Trazado 114189" d="M116.925,74.173c-1.865.129-4.845-4.323-9.317-6.409S94.341,70.913,93.149,78.729s2.982,22.375,6.558,23.816,8.2-.417,9.391.587,4.472,4.133,6.261,3.984,16.913-6.257,20.124-15.73-.6-15.872-5.813-17.958-10.585.6-12.745.745" transform="translate(-40.476 4.342)" fill="#b21b23"/>
          <path id="Trazado_114190" data-name="Trazado 114190" d="M105.615,75.577c5.207-.017,10.844,14.473,3.28,18.718s-12.075-.7-12.745-6.28S98.5,75.6,105.615,75.577" transform="translate(-19.7 4.876)" fill="#dd242d"/>
          <path id="Trazado_114191" data-name="Trazado 114191" d="M92.26,45.164c1.113,1.852-35.213,82.945-36.687,83.144s-9.764-1.132-10.02-3.38,34.385-80.5,34.981-81.887,10.732.468,11.727,2.123" transform="translate(54.352 2.745)" fill="#552a1a"/>
          <path id="Trazado_114192" data-name="Trazado 114192" d="M157.287,30.859c2.282.914,7.261,80.975,5.172,81.57s-8.25.374-9.442-1.006-7.752-78.5-7.355-80.285,8.643-1.471,11.625-.28" transform="translate(-122.875 1.928)" fill="#552a1a"/>
          <g id="Grupo_80178" data-name="Grupo 80178" transform="matrix(-0.788, 0.616, -0.616, -0.788, 78.979, 42.135)">
            <g id="Grupo_80159" data-name="Grupo 80159" transform="translate(0 0)">
              <g id="Grupo_80170" data-name="Grupo 80170" transform="translate(0)">
                <g id="Grupo_80171" data-name="Grupo 80171">
                  <path id="Trazado_114214" data-name="Trazado 114214" d="M3.012.253S-1.925,7.815.842,14.084c0,0,4.022-5.952,3.365-11.3,0,0,.842,5.582,5.26,8.02A16.271,16.271,0,0,0,4.459,0Z" transform="translate(2.574 32.425)" fill="#e2de85"/>
                  <path id="Trazado_114215" data-name="Trazado 114215" d="M5.923,0S-.655,5.511.053,10.174A20.239,20.239,0,0,0,6.025,2.062s-1.271,6.129,1.31,9.715c0,0,2.76-5.661.2-9.969a9.179,9.179,0,0,0,6.271,4S10.98,1.2,5.923,0" transform="translate(0 31.608)" fill="#b0b855"/>
                  <path id="Trazado_114216" data-name="Trazado 114216" d="M.286,30.953c.28,1.631,3.148,2.817,5.389,2.585S11.809,31.787,12.2,30C12.97,26.443,8.114.612,5.1.011S-.959,23.7.286,30.953" transform="translate(1.078 0)" fill="#ed6f29"/>
                </g>
              </g>
            </g>
            <g id="Grupo_80160" data-name="Grupo 80160" transform="translate(1.078 0.001)" clip-path="url(#clip-path-2)">
              <path id="Trazado_114217" data-name="Trazado 114217" d="M8.172,2.23S3.389,2.919,0,0" transform="translate(-0.324 26.523)" fill="none" stroke="#c9551b" stroke-linecap="round" stroke-miterlimit="10" stroke-width="2"/>
              <path id="Trazado_114218" data-name="Trazado 114218" d="M6.334,1.677A7.589,7.589,0,0,1,0,0" transform="translate(0.038 19.908)" fill="none" stroke="#c9551b" stroke-linecap="round" stroke-miterlimit="10" stroke-width="2"/>
              <path id="Trazado_114219" data-name="Trazado 114219" d="M4.538,1.434S2.424,2.088,0,0" transform="translate(0.963 12.24)" fill="none" stroke="#c9551b" stroke-linecap="round" stroke-miterlimit="10" stroke-width="2"/>
              <path id="Trazado_114220" data-name="Trazado 114220" d="M3.265,1.652A4.5,4.5,0,0,1,0,0" transform="translate(1.805 5.901)" fill="none" stroke="#c9551b" stroke-linecap="round" stroke-miterlimit="10" stroke-width="2"/>
            </g>
          </g>
          <path id="Trazado_114193" data-name="Trazado 114193" d="M172.258,43.659c1.32,1.65-6.361,21.466-8.348,21.863S42.471,50.815,41.477,49.224s-1.391-20.472,0-22.261,129.191,14.708,130.781,16.7" transform="translate(-20.478 1.731)" fill="#a2563c"/>
        </g>
      </g>
      <g id="Grupo_80146" data-name="Grupo 80146" transform="translate(331.847 336.597)">
        <g id="Grupo_80145" data-name="Grupo 80145" clip-path="url(#clip-path-3)">
          <path id="Trazado_114194" data-name="Trazado 114194" d="M188.2,48.3c-8.994-2.9-18.458-3.471-27.724-5.019-10.185-1.7-20.429-2.987-30.66-4.369s-20.385-3.084-30.536-4.974c-10.127-1.884-20.3-3.684-30.592-4.342-2.519-.162-5.035-.231-7.543-.532-2.364-.284-4.714-.682-7.055-1.117a140.117,140.117,0,0,0-14.546-2.336q-1.822-.142-3.648-.149a.533.533,0,0,1,0-1.065c9.851.033,19.293,3.415,29.1,3.942,5.111.275,10.188.683,15.264,1.36S90.4,31.239,95.446,32.156c10.2,1.853,20.363,3.751,30.633,5.182,10.225,1.424,20.478,2.65,30.676,4.263,4.813.762,9.626,1.456,14.452,2.128A120.77,120.77,0,0,1,185.155,46.3q1.68.439,3.331.973c.649.21.372,1.237-.283,1.026" transform="translate(-51.496 -26.985)" fill="#ff9149"/>
          <path id="Trazado_114195" data-name="Trazado 114195" d="M186.414,55.459c-9.841-2.755-19.846-4.881-29.91-6.643-10.111-1.77-20.279-3.184-30.45-4.552s-20.364-2.771-30.535-4.257c-10.443-1.524-20.891-3.019-31.353-4.4-4.748-.629-9.489-1.025-14.266-1.36a93.98,93.98,0,0,1-13.942-1.737q-1.709-.382-3.381-.9c-.654-.2-.375-1.228.283-1.026,9.076,2.789,18.688,2.343,28.019,3.525,10.358,1.311,20.694,2.807,31.025,4.307,10.243,1.487,20.486,2.955,30.744,4.329,10.126,1.356,20.252,2.719,30.33,4.4s20.1,3.672,29.971,6.274q1.876.5,3.746,1.019a.533.533,0,0,1-.283,1.026" transform="translate(-46.328 -26.587)" fill="#ff9149"/>
          <path id="Trazado_114196" data-name="Trazado 114196" d="M192.13,60.32c-9.785-1.168-19.3-3.932-29.1-5.031-10.064-1.128-20.08-2.633-30.113-4-10.111-1.377-20.271-2.342-30.377-3.743-10-1.386-19.952-3.075-29.888-4.851-10-1.788-19.989-3.663-30-5.407q-1.854-.324-3.709-.64c-.674-.115-.389-1.141.283-1.027,9.972,1.7,19.917,3.559,29.872,5.358,9.932,1.794,19.876,3.53,29.864,4.99,10.039,1.467,20.137,2.425,30.2,3.75,10.108,1.332,20.188,2.867,30.308,4.1,4.875.594,9.7,1.228,14.527,2.171,4.8.937,9.577,1.991,14.41,2.75q1.857.292,3.723.516c.672.08.68,1.145,0,1.065" transform="translate(-58.661 -26.261)" fill="#ff9149"/>
          <path id="Trazado_114197" data-name="Trazado 114197" d="M186.929,64.32a4.73,4.73,0,0,0-1.7-.375c-.819-.09-1.64-.138-2.462-.186-1.907-.111-3.815-.238-5.719-.41-4.732-.428-9.425-1.184-14.107-1.984-4.936-.844-9.865-1.71-14.819-2.445-4.938-.732-9.885-1.4-14.829-2.092-9.865-1.386-19.681-3.054-29.482-4.832-9.848-1.786-19.681-3.658-29.533-5.418-9.808-1.752-19.639-3.4-29.514-4.735q-1.924-.262-3.85-.506c-.671-.085-.679-1.151,0-1.065,9.934,1.264,19.822,2.85,29.685,4.577,9.906,1.736,19.787,3.61,29.68,5.424s19.785,3.584,29.736,5.021c9.976,1.44,19.968,2.725,29.9,4.474,4.815.848,9.641,1.689,14.5,2.245,2.221.253,4.446.407,6.675.577,1.6.121,3.205.144,4.792.373a4.62,4.62,0,0,1,1.589.438c.6.329.064,1.248-.538.919" transform="translate(-55.716 -25.961)" fill="#ff9149"/>
        </g>
      </g>
      <g id="Grupo_80148" data-name="Grupo 80148" transform="translate(311.748 308.038)">
        <g id="Grupo_80147" data-name="Grupo 80147" clip-path="url(#clip-path)">
          <path id="Trazado_114199" data-name="Trazado 114199" d="M52.482,52.394a2.286,2.286,0,1,0,2.287-2.286,2.286,2.286,0,0,0-2.287,2.286" transform="translate(82.204 3.233)" fill="#e2de85"/>
          <path id="Trazado_114200" data-name="Trazado 114200" d="M152.9,39.763a2.286,2.286,0,1,0,2.286-2.286,2.285,2.285,0,0,0-2.286,2.286" transform="translate(-125.104 2.418)" fill="#e2de85"/>
          <path id="Trazado_114201" data-name="Trazado 114201" d="M170.566,77.057c1.405,1.405-6.062,22.459-8.2,23.453S55.089,81.628,54.294,80.237s-.874-21.681-.278-22.675,114.164,17.111,116.55,19.5" transform="translate(-32.699 3.711)" fill="#a2563c"/>
        </g>
      </g>
      <g id="Grupo_80150" data-name="Grupo 80150" transform="translate(332.674 369.271)">
        <g id="Grupo_80149" data-name="Grupo 80149" clip-path="url(#clip-path-5)">
          <path id="Trazado_114202" data-name="Trazado 114202" d="M184.613,82.75a70.162,70.162,0,0,1-13.424-1.367c-2.27-.395-4.535-.815-6.81-1.177-2.311-.367-4.632-.608-6.956-.872-9.647-1.1-19.233-2.669-28.79-4.367s-19.093-3.513-28.671-5.1C90.55,68.31,81.118,66.84,71.772,64.9a112.3,112.3,0,0,1-11.8-2.88,80.439,80.439,0,0,0-10.382-3.108,12.5,12.5,0,0,0-2.115-.213.533.533,0,0,1,0-1.065c3.3.028,6.6,1.3,9.688,2.331,1.764.591,3.526,1.2,5.313,1.715,1.839.533,3.722.913,5.59,1.332,9.3,2.085,18.723,3.617,28.13,5.161,9.55,1.567,19.065,3.3,28.589,5.025,9.64,1.743,19.3,3.414,29.023,4.637,4.593.578,9.184,1.032,13.747,1.829a119.318,119.318,0,0,0,13.731,1.96q1.664.094,3.33.061a.533.533,0,0,1,0,1.065" transform="translate(-60.915 -57.516)" fill="#ff9149"/>
          <path id="Trazado_114203" data-name="Trazado 114203" d="M183.806,90.621c-4.091.086-8.081-1.05-11.949-2.261-2.032-.637-4.055-1.309-6.106-1.885a55.8,55.8,0,0,0-6.12-1.3c-9.244-1.513-18.546-2.624-27.818-3.945-4.622-.658-9.237-1.369-13.83-2.206-4.52-.823-9.008-1.8-13.521-2.657-8.981-1.7-17.994-3.264-26.9-5.352Q70.847,69.435,64.24,67.43C59.841,66.1,55.486,64.592,51,63.593q-1.629-.361-3.279-.617c-.675-.1-.389-1.131.283-1.027a91.456,91.456,0,0,1,13.244,3.441C65.607,66.756,70,68.04,74.437,69.156,83.256,71.378,92.21,73,101.146,74.665c9.086,1.692,18.114,3.628,27.257,5,9.177,1.374,18.395,2.464,27.569,3.861,2.254.344,4.524.658,6.759,1.111a60.7,60.7,0,0,1,5.946,1.6c3.993,1.247,8,2.718,12.184,3.185a22.5,22.5,0,0,0,2.946.134.533.533,0,0,1,0,1.065" transform="translate(-60.505 -57.238)" fill="#ff9149"/>
          <path id="Trazado_114204" data-name="Trazado 114204" d="M186.119,96.193c-8.65-2.423-17.643-3.205-26.485-4.626q-13.553-2.18-27.06-4.638c-4.429-.809-8.872-1.584-13.278-2.507-4.341-.909-8.646-1.978-12.939-3.087-8.622-2.227-17.231-4.73-26.015-6.25-8.391-1.452-16.869-2.636-25-5.273q-1.506-.489-2.99-1.047c-.636-.238-.36-1.268.283-1.026,8,3.005,16.478,4.4,24.876,5.8,8.757,1.457,17.324,3.687,25.905,5.934,4.29,1.122,8.584,2.233,12.909,3.214,4.365.991,8.768,1.78,13.168,2.6Q143,87.794,156.561,90c4.449.726,8.9,1.386,13.365,2.014,4.428.623,8.858,1.292,13.215,2.315q1.64.386,3.262.841a.533.533,0,0,1-.283,1.026" transform="translate(-67.928 -56.866)" fill="#ff9149"/>
        </g>
      </g>
      <g id="Grupo_80152" data-name="Grupo 80152" transform="translate(311.748 308.038)">
        <g id="Grupo_80151" data-name="Grupo 80151" clip-path="url(#clip-path)">
          <path id="Trazado_114206" data-name="Trazado 114206" d="M150.75,69.689a2.286,2.286,0,1,0,2.286-2.285,2.285,2.285,0,0,0-2.286,2.285" transform="translate(-120.671 4.348)" fill="#e2de85"/>
          <path id="Trazado_114207" data-name="Trazado 114207" d="M66.753,86.247a2.286,2.286,0,1,0,2.287-2.286,2.286,2.286,0,0,0-2.287,2.286" transform="translate(52.741 5.417)" fill="#e2de85"/>
          <path id="Trazado_114208" data-name="Trazado 114208" d="M166.138,112.193c1.432,1.822-4.024,10.335-4.819,10.534s-89.794-19.279-90.313-20.274-1.668-9.54,0-10.335,92.945,17.292,95.132,20.075" transform="translate(-45.912 5.941)" fill="#a2563c"/>
        </g>
      </g>
      <g id="Grupo_80154" data-name="Grupo 80154" transform="translate(335.972 406.072)">
        <g id="Grupo_80153" data-name="Grupo 80153" clip-path="url(#clip-path-7)">
          <path id="Trazado_114209" data-name="Trazado 114209" d="M177.6,117.014c-15.946-2.023-31.571-5.889-47.128-9.842-7.737-1.966-15.512-3.806-23.221-5.876-7.662-2.058-15.28-4.293-23.008-6.1-2.061-.482-4.132-.971-6.217-1.34-1.56-.277-3.142-.416-4.716-.583-3.073-.327-6.473-.526-9.269-1.969-.609-.314-.071-1.233.538-.919,2.473,1.276,5.521,1.478,8.24,1.771,1.45.156,2.9.295,4.346.5,1.635.227,3.249.594,4.86.95,7.671,1.69,15.223,3.864,22.8,5.934,7.6,2.078,15.273,3.9,22.911,5.843,7.735,1.968,15.471,3.941,23.254,5.707,8.8,2,17.662,3.73,26.614,4.866.671.085.679,1.151,0,1.065" transform="translate(-75.084 -92.207)" fill="#ff9149"/>
          <path id="Trazado_114210" data-name="Trazado 114210" d="M182.964,121.356c-15.07-3.515-30.193-6.811-45.23-10.471-3.761-.915-7.5-1.927-11.282-2.774-3.679-.826-7.387-1.509-11.1-2.136-7.546-1.272-15.133-2.3-22.637-3.814-8.342-1.679-16.487-4.41-25.083-4.438a.533.533,0,0,1,0-1.065c7.585.024,14.965,2.049,22.289,3.794,7.462,1.777,15.1,2.772,22.669,4,3.807.615,7.608,1.266,11.384,2.044,3.7.762,7.357,1.721,11.026,2.628,7.571,1.87,15.167,3.637,22.768,5.377,8.495,1.945,17,3.854,25.482,5.834.666.155.384,1.182-.284,1.026" transform="translate(-84.17 -91.799)" fill="#ff9149"/>
        </g>
      </g>
      <g id="Grupo_80156" data-name="Grupo 80156" transform="translate(311.748 308.038)">
        <g id="Grupo_80155" data-name="Grupo 80155" clip-path="url(#clip-path)">
          <path id="Trazado_114212" data-name="Trazado 114212" d="M148.6,98.953a2.286,2.286,0,1,0,2.286-2.286,2.285,2.285,0,0,0-2.286,2.286" transform="translate(-116.236 6.236)" fill="#e2de85"/>
          <path id="Trazado_114213" data-name="Trazado 114213" d="M79.242,114.055a2.286,2.286,0,1,0,2.286-2.286,2.285,2.285,0,0,0-2.286,2.286" transform="translate(26.958 7.211)" fill="#e2de85"/>
        </g>
      </g>
      <g id="Grupo_80159-2" data-name="Grupo 80159" transform="matrix(-0.719, 0.695, -0.695, -0.719, 409.311, 336.264)">
        <g id="Grupo_80170-2" data-name="Grupo 80170" transform="translate(0 0)">
          <g id="Grupo_80171-2" data-name="Grupo 80171">
            <path id="Trazado_114214-2" data-name="Trazado 114214" d="M2.235.188S-1.428,5.8.625,10.452c0,0,2.985-4.417,2.5-8.384,0,0,.625,4.143,3.9,5.951A12.075,12.075,0,0,0,3.309,0Z" transform="translate(1.91 24.063)" fill="#e2de85"/>
            <path id="Trazado_114215-2" data-name="Trazado 114215" d="M4.4,0S-.486,4.09.04,7.55A15.019,15.019,0,0,0,4.471,1.53s-.943,4.548.973,7.21c0,0,2.049-4.2.148-7.4a6.812,6.812,0,0,0,4.654,2.965A10.472,10.472,0,0,0,4.4,0" transform="translate(0 23.457)" fill="#b0b855"/>
            <path id="Trazado_114216-2" data-name="Trazado 114216" d="M.212,22.97c.208,1.211,2.336,2.09,4,1.918s4.552-1.3,4.84-2.626C9.625,19.624,6.021.454,3.783.008S-.711,17.586.212,22.97" transform="translate(0.8 0)" fill="#ed6f29"/>
          </g>
        </g>
      </g>
      <g id="Grupo_80160-2" data-name="Grupo 80160" transform="matrix(-0.719, 0.695, -0.695, -0.719, 408.735, 336.818)" clip-path="url(#clip-path-9)">
        <path id="Trazado_114217-2" data-name="Trazado 114217" d="M6.065,1.655A8.391,8.391,0,0,1,0,0" transform="translate(-0.24 19.683)" fill="none" stroke="#c9551b" stroke-linecap="round" stroke-miterlimit="10" stroke-width="2"/>
        <path id="Trazado_114218-2" data-name="Trazado 114218" d="M4.7,1.244A5.632,5.632,0,0,1,0,0" transform="translate(0.028 14.774)" fill="none" stroke="#c9551b" stroke-linecap="round" stroke-miterlimit="10" stroke-width="2"/>
        <path id="Trazado_114219-2" data-name="Trazado 114219" d="M3.368,1.064A3.757,3.757,0,0,1,0,0" transform="translate(0.715 9.084)" fill="none" stroke="#c9551b" stroke-linecap="round" stroke-miterlimit="10" stroke-width="2"/>
        <path id="Trazado_114220-2" data-name="Trazado 114220" d="M2.423,1.226A3.338,3.338,0,0,1,0,0" transform="translate(1.339 4.379)" fill="none" stroke="#c9551b" stroke-linecap="round" stroke-miterlimit="10" stroke-width="2"/>
      </g>
      <g id="Grupo_80159-3" data-name="Grupo 80159" transform="matrix(-0.719, 0.695, -0.695, -0.719, 448.213, 343.649)">
        <g id="Grupo_80170-3" data-name="Grupo 80170" transform="translate(0 0)">
          <g id="Grupo_80171-3" data-name="Grupo 80171">
            <path id="Trazado_114214-3" data-name="Trazado 114214" d="M4.1.344S-2.62,10.636,1.146,19.168c0,0,5.473-8.1,4.58-15.376,0,0,1.146,7.6,7.159,10.915A22.144,22.144,0,0,0,6.068,0Z" transform="translate(3.503 44.129)" fill="#e2de85"/>
            <path id="Trazado_114215-3" data-name="Trazado 114215" d="M8.062,0S-.891,7.5.073,13.846c0,0,5.758-4.443,8.128-11.039,0,0-1.729,8.341,1.784,13.222,0,0,3.757-7.7.271-13.568A12.492,12.492,0,0,0,18.789,7.9S14.944,1.636,8.062,0" transform="translate(0 43.018)" fill="#b0b855"/>
            <path id="Trazado_114216-3" data-name="Trazado 114216" d="M.389,42.126c.381,2.22,4.284,3.834,7.335,3.518s8.348-2.383,8.876-4.816C17.652,35.988,11.042.832,6.937.015S-1.3,32.251.389,42.126" transform="translate(1.467 0)" fill="#ed6f29"/>
          </g>
        </g>
      </g>
      <g id="Grupo_80160-3" data-name="Grupo 80160" transform="matrix(-0.719, 0.695, -0.695, -0.719, 447.157, 344.667)" clip-path="url(#clip-path-10)">
        <path id="Trazado_114217-3" data-name="Trazado 114217" d="M11.122,3.035S4.612,3.972,0,0" transform="translate(-0.441 36.096)" fill="none" stroke="#c9551b" stroke-linecap="round" stroke-miterlimit="10" stroke-width="2"/>
        <path id="Trazado_114218-3" data-name="Trazado 114218" d="M8.62,2.282A10.329,10.329,0,0,1,0,0" transform="translate(0.052 27.094)" fill="none" stroke="#c9551b" stroke-linecap="round" stroke-miterlimit="10" stroke-width="2"/>
        <path id="Trazado_114219-3" data-name="Trazado 114219" d="M6.176,1.952S3.3,2.841,0,0" transform="translate(1.311 16.659)" fill="none" stroke="#c9551b" stroke-linecap="round" stroke-miterlimit="10" stroke-width="2"/>
        <path id="Trazado_114220-3" data-name="Trazado 114220" d="M4.444,2.249A6.122,6.122,0,0,1,0,0" transform="translate(2.456 8.031)" fill="none" stroke="#c9551b" stroke-linecap="round" stroke-miterlimit="10" stroke-width="2"/>
      </g>
    </g>
  </g>
</svg>
