<svg xmlns="http://www.w3.org/2000/svg" xmlns:xlink="http://www.w3.org/1999/xlink" width="84.938" height="84.938" viewBox="0 0 84.938 84.938">
  <defs>
    <clipPath id="clip-path">
      <rect id="Rectángulo_33798" data-name="Rectángulo 33798" width="84.938" height="84.938" transform="translate(0 0.001)" fill="#ffb500"/>
    </clipPath>
  </defs>
  <g id="Grupo_80129" data-name="Grupo 80129" transform="translate(0 -0.001)">
    <g id="Grupo_80128" data-name="Grupo 80128" clip-path="url(#clip-path)">
      <path id="Trazado_114082" data-name="Trazado 114082" d="M42.469,66A23.536,23.536,0,1,0,18.932,42.468,23.581,23.581,0,0,0,42.469,66" fill="#ffb500" fill-rule="evenodd"/>
      <path id="Trazado_114083" data-name="Trazado 114083" d="M44.867,13.429a2.406,2.406,0,0,1-4.8,0l-1.16-9.216a3.659,3.659,0,0,1-.051-.6,3.609,3.609,0,0,1,7.218,0,3.659,3.659,0,0,1-.051.6Z" fill="#ffb500" fill-rule="evenodd"/>
      <path id="Trazado_114084" data-name="Trazado 114084" d="M44.867,71.51a2.406,2.406,0,0,0-4.8,0l-1.16,9.215a3.656,3.656,0,0,0-.051.6,3.609,3.609,0,1,0,7.218,0,3.656,3.656,0,0,0-.051-.6Z" fill="#ffb500" fill-rule="evenodd"/>
      <path id="Trazado_114085" data-name="Trazado 114085" d="M59.065,18.519a2.405,2.405,0,0,1-4.152-2.4l3.6-8.562h0a3.609,3.609,0,1,1,6.509,3.06,3.72,3.72,0,0,1-.347.5Z" fill="#ffb500" fill-rule="evenodd"/>
      <path id="Trazado_114086" data-name="Trazado 114086" d="M30.025,68.817a2.406,2.406,0,0,0-4.153-2.4l-5.613,7.4a3.665,3.665,0,0,0-.346.5,3.609,3.609,0,1,0,6.509,3.061Z" fill="#ffb500" fill-rule="evenodd"/>
      <path id="Trazado_114087" data-name="Trazado 114087" d="M68.817,30.025a2.405,2.405,0,0,1-2.4-4.152l7.4-5.614a3.978,3.978,0,0,1,.5-.346,3.609,3.609,0,0,1,3.609,6.252,3.785,3.785,0,0,1-.548.258Z" fill="#ffb500" fill-rule="evenodd"/>
      <path id="Trazado_114088" data-name="Trazado 114088" d="M18.518,59.065a2.405,2.405,0,0,0-2.4-4.152l-8.563,3.6a3.835,3.835,0,0,0-.548.258,3.61,3.61,0,0,0,3.61,6.252,3.831,3.831,0,0,0,.5-.347Z" fill="#ffb500" fill-rule="evenodd"/>
      <path id="Trazado_114089" data-name="Trazado 114089" d="M71.509,44.866a2.406,2.406,0,0,1,0-4.8l9.217-1.161h0a3.608,3.608,0,1,1,.6,7.166,3.736,3.736,0,0,1-.6-.05Z" fill="#ffb500" fill-rule="evenodd"/>
      <path id="Trazado_114090" data-name="Trazado 114090" d="M13.429,44.866a2.406,2.406,0,0,0,0-4.8L4.212,38.91h0a3.647,3.647,0,0,0-.6-.051,3.608,3.608,0,0,0,0,7.217,3.758,3.758,0,0,0,.6-.05Z" fill="#ffb500" fill-rule="evenodd"/>
      <path id="Trazado_114091" data-name="Trazado 114091" d="M66.42,59.065a2.405,2.405,0,0,1,2.4-4.152l8.562,3.6a3.747,3.747,0,0,1,.549.258,3.609,3.609,0,0,1-3.609,6.252,3.785,3.785,0,0,1-.5-.347Z" fill="#ffb500" fill-rule="evenodd"/>
      <path id="Trazado_114092" data-name="Trazado 114092" d="M16.121,30.025a2.406,2.406,0,0,0,2.4-4.153l-7.4-5.613h0a3.786,3.786,0,0,0-.5-.346,3.609,3.609,0,1,0-3.608,6.252,3.678,3.678,0,0,0,.547.258Z" fill="#ffb500" fill-rule="evenodd"/>
      <path id="Trazado_114093" data-name="Trazado 114093" d="M54.913,68.817a2.405,2.405,0,0,1,4.152-2.4l5.614,7.4a3.757,3.757,0,0,1,.346.5,3.609,3.609,0,1,1-6.509,3.061Z" fill="#ffb500" fill-rule="evenodd"/>
      <path id="Trazado_114094" data-name="Trazado 114094" d="M25.873,18.519a2.405,2.405,0,0,0,4.152-2.4l-3.6-8.562a3.8,3.8,0,0,0-.259-.549,3.609,3.609,0,0,0-6.25,3.609,3.714,3.714,0,0,0,.346.5Z" fill="#ffb500" fill-rule="evenodd"/>
    </g>
  </g>
</svg>
