<svg xmlns="http://www.w3.org/2000/svg" width="64.874" height="64.842" viewBox="0 0 64.874 64.842">
  <g id="Grupo_165566" data-name="Grupo 165566" transform="translate(-51.88 -53.097)">
    <g id="Grupo_165567" data-name="Grupo 165567" transform="translate(51.88 53.097)">
      <path id="Trazado_237806" data-name="Trazado 237806" d="M57.137,103.477q0-1.9,0-3.808c.988-.192,1.232-.835,1.23-1.771q-.03-15.421-.011-30.842c0-2.261,1.164-3.427,3.406-3.428q12.326,0,24.653,0c.28,0,.559.025.9.041,0,2.565-.005,5.071,0,7.578a5.406,5.406,0,0,0,5.651,5.685c2.228.015,4.456,0,6.684,0h.923v7.4c-7.354-2.282-13.773-.927-18.643,5.09-4.345,5.369-5.016,11.56-1.665,17.586,4.49,8.077,11.641,10.169,20.371,7.711,0,1.943.041,3.878-.012,5.81a2.957,2.957,0,0,1-3.244,3.062q-17.839.006-35.676,0a3.021,3.021,0,0,1-3.351-3.31c-.01-1.79-.035-3.582.011-5.371a1.426,1.426,0,0,0-1.226-1.683l-.008-3.821a1.313,1.313,0,0,0,1.23-1.549c-.028-.943-.03-1.888,0-2.831a1.33,1.33,0,0,0-1.23-1.557M73.428,92.031a2.391,2.391,0,0,0-.565-.144q-3.167-.016-6.335,0a2.356,2.356,0,0,0-.564.145c-.7.249-1.177.691-1,1.479.17.771.768.983,1.514.976q3.24-.03,6.482,0c.747.006,1.34-.213,1.495-.993s-.313-1.231-1.024-1.463m.346-10.582c-2.458,0-4.916-.007-7.374,0-.951,0-1.478.452-1.476,1.2s.557,1.219,1.48,1.221q7.374.011,14.748,0c.986,0,1.532-.481,1.507-1.272-.024-.77-.505-1.151-1.511-1.154-2.458-.008-4.916,0-7.374,0m-1.021-8.173q3.037,0,6.074,0a4.921,4.921,0,0,0,.863-.055,1.123,1.123,0,0,0,1.018-1.2,1.142,1.142,0,0,0-1.057-1.176,5.325,5.325,0,0,0-.865-.035q-5.294,0-10.588,0c-.723,0-1.449-.028-2.167.034a1.112,1.112,0,0,0-1.1,1.132,1.156,1.156,0,0,0,1.054,1.266,4.24,4.24,0,0,0,.778.039q2.994,0,5.988,0m.033,42.453c2.025,0,4.049,0,6.074,0,.316,0,.719.065.928-.1.372-.288.856-.721.866-1.1s-.446-.847-.8-1.153c-.2-.168-.608-.111-.923-.112q-6.118-.009-12.236,0c-.287,0-.661-.059-.842.091a2.436,2.436,0,0,0-.887,1.117,1,1,0,0,0,.889,1.182,4.389,4.389,0,0,0,.946.076c2,.006,3.992,0,5.988,0m-3.111-10.646c1.124,0,2.249.011,3.374,0,.945-.012,1.45-.462,1.43-1.236-.018-.717-.539-1.181-1.412-1.186q-3.374-.021-6.749,0a1.245,1.245,0,0,0-1.395,1.21c0,.727.507,1.2,1.376,1.21,1.124.018,2.249,0,3.374,0" transform="translate(-55.919 -61.188)" fill="#d2e1f1"/>
      <path id="Trazado_237807" data-name="Trazado 237807" d="M53.1,105.143a1.426,1.426,0,0,1,1.226,1.684c-.045,1.789-.021,3.58-.011,5.371a3.021,3.021,0,0,0,3.351,3.31q17.838,0,35.677,0a2.957,2.957,0,0,0,3.244-3.062c.053-1.932.012-3.867.012-5.81-8.731,2.458-15.881.366-20.371-7.711-3.35-6.026-2.68-12.217,1.665-17.586,4.869-6.017,11.289-7.371,18.643-5.09v-7.4h-.923c-2.228,0-4.456.012-6.684,0a5.406,5.406,0,0,1-5.651-5.685c-.006-2.506,0-5.013,0-7.578-.343-.016-.623-.041-.9-.041q-12.326,0-24.652,0c-2.242,0-3.405,1.166-3.406,3.428q0,15.421.011,30.842c0,.936-.242,1.579-1.23,1.771-.924-.2-1.222-.809-1.221-1.713.014-10.371,0-20.742.014-31.113a5.392,5.392,0,0,1,5.693-5.641q13.2-.009,26.4-.013a2.2,2.2,0,0,1,1.693.685c4.226,4.24,8.48,8.451,12.683,12.712A2.547,2.547,0,0,1,99,68.089c.062,2.917.015,5.835.049,8.753a1.355,1.355,0,0,0,.43,1,16.228,16.228,0,0,1,5.868,20.25c-.047.1-.072.216-.156.472.632.59,1.324,1.2,1.979,1.853q3.91,3.881,7.8,7.781a5.405,5.405,0,1,1-7.646,7.624c-2.708-2.689-5.394-5.4-8.2-8.212-.041.338-.087.541-.088.744-.006,1.3.007,2.6-.006,3.9a5.411,5.411,0,0,1-5.739,5.687q-11.115.008-22.23,0-6.687,0-13.373,0a5.424,5.424,0,0,1-5.8-5.8c-.006-1.762.02-3.525-.01-5.286a1.468,1.468,0,0,1,1.225-1.706m51.238-13.681a13.829,13.829,0,1,0-13.719,13.762,13.821,13.821,0,0,0,13.719-13.762m-4.172,13.76c2.832,2.831,5.985,6.008,9.172,9.151a2.7,2.7,0,0,0,2.648.709,2.938,2.938,0,0,0,1.389-5.025c-2.983-3.021-6-6.007-9.012-9a3.44,3.44,0,0,0-.457-.33l.321.411-4.06,4.088M94.414,66.427l-8.7-8.672c0,1.726-.005,3.654,0,5.581a2.914,2.914,0,0,0,2.7,3.062c2.066.121,4.144.029,6,.029" transform="translate(-51.88 -53.097)"/>
      <path id="Trazado_237808" data-name="Trazado 237808" d="M53.1,235.715a1.329,1.329,0,0,1,1.23,1.557c-.03.943-.028,1.888,0,2.831a1.313,1.313,0,0,1-1.23,1.549,1.372,1.372,0,0,1-1.213-1.591c.016-.916.019-1.833,0-2.748a1.394,1.394,0,0,1,1.215-1.6" transform="translate(-51.886 -193.427)" fill="#40285b"/>
      <path id="Trazado_237809" data-name="Trazado 237809" d="M99.618,140.582c2.458,0,4.916-.005,7.374,0,1.006,0,1.487.384,1.511,1.154.025.791-.521,1.271-1.507,1.272q-7.374.01-14.748,0c-.924,0-1.479-.482-1.481-1.221s.526-1.2,1.476-1.2c2.458-.01,4.916,0,7.374,0" transform="translate(-81.763 -120.322)" fill="#3e2658"/>
      <path id="Trazado_237810" data-name="Trazado 237810" d="M98.621,97.072q-2.994,0-5.988,0a4.219,4.219,0,0,1-.778-.038A1.156,1.156,0,0,1,90.8,95.767a1.112,1.112,0,0,1,1.1-1.133c.718-.062,1.445-.034,2.167-.034q5.294,0,10.588,0a5.321,5.321,0,0,1,.865.036,1.141,1.141,0,0,1,1.057,1.176,1.123,1.123,0,0,1-1.018,1.2,4.913,4.913,0,0,1-.862.055q-3.038.006-6.075,0" transform="translate(-81.787 -84.984)" fill="#3f295b"/>
      <path id="Trazado_237811" data-name="Trazado 237811" d="M98.671,280.395c-2,0-3.992,0-5.987,0a4.4,4.4,0,0,1-.946-.076,1,1,0,0,1-.889-1.182,2.436,2.436,0,0,1,.887-1.117c.182-.151.555-.091.842-.091q6.118-.007,12.235,0c.315,0,.727-.056.923.112.357.306.813.768.8,1.153s-.494.816-.866,1.1c-.21.162-.613.1-.929.1-2.025.007-4.049,0-6.074,0" transform="translate(-81.805 -225.853)" fill="#40295a"/>
      <path id="Trazado_237812" data-name="Trazado 237812" d="M95.519,234.568c-1.125,0-2.25.013-3.374,0-.869-.014-1.381-.484-1.376-1.21a1.244,1.244,0,0,1,1.395-1.21q3.375-.024,6.749,0c.873.005,1.394.469,1.412,1.186.019.773-.485,1.224-1.43,1.236-1.125.014-2.25,0-3.374,0" transform="translate(-81.763 -190.673)" fill="#402759"/>
      <path id="Trazado_237813" data-name="Trazado 237813" d="M99.275,186.286c.71.231,1.18.673,1.024,1.463s-.747,1-1.495.993q-3.24-.026-6.482,0c-.747.007-1.344-.205-1.514-.976-.174-.788.3-1.23,1-1.48l7.464,0" transform="translate(-81.766 -155.444)" fill="#3d2357"/>
      <path id="Trazado_237814" data-name="Trazado 237814" d="M102.721,185.784l-7.464,0a2.351,2.351,0,0,1,.565-.145q3.167-.016,6.334,0a2.388,2.388,0,0,1,.565.144" transform="translate(-85.212 -154.941)" fill="#5bdff7"/>
      <path id="Trazado_237815" data-name="Trazado 237815" d="M186.659,172.717a13.829,13.829,0,1,1-13.788-13.879,13.789,13.789,0,0,1,13.788,13.879m-15.314,2.193c-1.269-1.294-2.47-2.541-3.7-3.762a1.138,1.138,0,0,0-1.705-.044,1.164,1.164,0,0,0-.03,1.707q2.269,2.33,4.6,4.6a1.158,1.158,0,0,0,1.776-.011q3.727-3.693,7.43-7.412c.1-.1.253-.236.245-.344-.034-.458.035-1.081-.229-1.323a2.036,2.036,0,0,0-1.388-.257c-.254.019-.5.367-.72.589-2.05,2.036-4.094,4.078-6.281,6.258" transform="translate(-134.196 -134.353)" fill="#ffb500"/>
      <path id="Trazado_237816" data-name="Trazado 237816" d="M260.418,263.265l4.06-4.088-.321-.41a3.493,3.493,0,0,1,.457.33c3.009,3,6.029,5.982,9.012,9a2.937,2.937,0,0,1-1.389,5.025,2.7,2.7,0,0,1-2.648-.708c-3.186-3.144-6.34-6.32-9.171-9.152" transform="translate(-212.127 -211.14)" fill="#a3314f"/>
      <path id="Trazado_237817" data-name="Trazado 237817" d="M206.688,81.883c-1.858,0-3.936.091-6-.029a2.914,2.914,0,0,1-2.7-3.062c-.007-1.928,0-3.855,0-5.581l8.7,8.672" transform="translate(-164.153 -68.553)" fill="#b0c0d2"/>
      <path id="Trazado_237818" data-name="Trazado 237818" d="M193.094,205.477c2.186-2.18,4.231-4.221,6.281-6.258.224-.223.466-.57.72-.589a2.036,2.036,0,0,1,1.388.257c.264.243.195.865.229,1.323.008.109-.144.243-.245.344q-3.71,3.71-7.43,7.412a1.158,1.158,0,0,1-1.776.011q-2.329-2.27-4.6-4.6a1.164,1.164,0,0,1,.03-1.707,1.138,1.138,0,0,1,1.705.044c1.227,1.221,2.428,2.467,3.7,3.762" transform="translate(-155.945 -164.919)"/>
    </g>
  </g>
</svg>
